<svg xmlns="http://www.w3.org/2000/svg" xmlns:xlink="http://www.w3.org/1999/xlink" width="500" zoomAndPan="magnify" viewBox="0 0 375 374.999991" height="500" preserveAspectRatio="xMidYMid meet" version="1.0"><defs><clipPath id="30747453dc"><path d="M 19 157.433594 L 356 157.433594 L 356 217.433594 L 19 217.433594 Z M 19 157.433594 " clip-rule="nonzero"/></clipPath><clipPath id="5a453c33b5"><path d="M 19 181 L 350 181 L 350 217.433594 L 19 217.433594 Z M 19 181 " clip-rule="nonzero"/></clipPath><clipPath id="933bbee768"><path d="M 79 157.433594 L 92 157.433594 L 92 170 L 79 170 Z M 79 157.433594 " clip-rule="nonzero"/></clipPath><clipPath id="56af71a98b"><path d="M 91 157.433594 L 104 157.433594 L 104 164 L 91 164 Z M 91 157.433594 " clip-rule="nonzero"/></clipPath></defs><g clip-path="url(#30747453dc)"><path fill="#ff999a" d="M 343.835938 205.433594 L 343.835938 199.433594 L 325.796875 199.433594 L 325.796875 187.433594 L 307.757812 187.433594 L 307.757812 181.433594 L 289.71875 181.433594 L 289.71875 187.433594 L 271.679688 187.433594 L 271.679688 193.433594 L 265.667969 193.433594 L 265.667969 181.433594 L 253.640625 181.433594 L 253.640625 175.433594 L 223.578125 175.433594 L 223.578125 181.433594 L 211.550781 181.433594 L 211.550781 187.433594 L 205.539062 187.433594 L 205.539062 193.433594 L 199.527344 193.433594 L 199.527344 199.433594 L 193.511719 199.433594 L 193.511719 205.433594 L 181.488281 205.433594 L 181.488281 199.433594 L 175.472656 199.433594 L 175.472656 193.433594 L 163.449219 193.433594 L 163.449219 187.433594 L 145.410156 187.433594 L 145.410156 193.433594 L 133.382812 193.433594 L 133.382812 181.433594 L 127.371094 181.433594 L 127.371094 175.433594 L 121.359375 175.433594 L 121.359375 169.433594 L 115.34375 169.433594 L 115.34375 163.433594 L 103.320312 163.433594 L 103.320312 157.433594 L 79.269531 157.433594 L 79.269531 163.433594 L 73.253906 163.433594 L 73.253906 169.433594 L 67.242188 169.433594 L 67.242188 175.433594 L 61.230469 175.433594 L 61.230469 181.433594 L 55.214844 181.433594 L 55.214844 175.433594 L 43.191406 175.433594 L 43.191406 181.433594 L 37.179688 181.433594 L 37.179688 187.433594 L 31.164062 187.433594 L 31.164062 193.433594 L 25.152344 193.433594 L 25.152344 199.433594 L 19.140625 199.433594 L 19.140625 211.433594 L 25.152344 211.433594 L 25.152344 217.433594 L 349.847656 217.433594 L 349.847656 211.433594 L 355.859375 211.433594 L 355.859375 205.433594 Z M 343.835938 205.433594 " fill-opacity="1" fill-rule="nonzero"/></g><g clip-path="url(#5a453c33b5)"><path fill="#5561d3" d="M 301.746094 211.433594 L 301.746094 205.433594 L 295.730469 205.433594 L 295.730469 211.433594 L 289.71875 211.433594 L 289.71875 205.433594 L 277.691406 205.433594 L 277.691406 199.433594 L 271.679688 199.433594 L 271.679688 193.433594 L 265.667969 193.433594 L 265.667969 199.433594 L 259.65625 199.433594 L 259.65625 205.433594 L 247.628906 205.433594 L 247.628906 211.433594 L 217.5625 211.433594 L 217.5625 205.433594 L 211.550781 205.433594 L 211.550781 193.433594 L 217.5625 193.433594 L 217.5625 187.433594 L 223.578125 187.433594 L 223.578125 181.433594 L 211.550781 181.433594 L 211.550781 187.433594 L 205.539062 187.433594 L 205.539062 193.433594 L 199.527344 193.433594 L 199.527344 199.433594 L 193.511719 199.433594 L 193.511719 205.433594 L 181.488281 205.433594 L 181.488281 211.433594 L 163.449219 211.433594 L 163.449219 205.433594 L 157.433594 205.433594 L 157.433594 211.433594 L 151.421875 211.433594 L 151.421875 205.433594 L 145.410156 205.433594 L 145.410156 193.433594 L 133.382812 193.433594 L 133.382812 199.433594 L 139.398438 199.433594 L 139.398438 205.433594 L 133.382812 205.433594 L 133.382812 211.433594 L 121.359375 211.433594 L 121.359375 205.433594 L 115.34375 205.433594 L 115.34375 211.433594 L 109.332031 211.433594 L 109.332031 205.433594 L 85.28125 205.433594 L 85.28125 211.433594 L 55.214844 211.433594 L 55.214844 205.433594 L 37.179688 205.433594 L 37.179688 199.433594 L 31.164062 199.433594 L 31.164062 193.433594 L 25.152344 193.433594 L 25.152344 199.433594 L 19.140625 199.433594 L 19.140625 211.433594 L 25.152344 211.433594 L 25.152344 217.433594 L 349.847656 217.433594 L 349.847656 211.433594 Z M 301.746094 211.433594 " fill-opacity="1" fill-rule="nonzero"/></g><path fill="#5561d3" d="M 61.230469 175.433594 L 67.242188 175.433594 L 67.242188 193.433594 L 61.230469 193.433594 Z M 61.230469 175.433594 " fill-opacity="1" fill-rule="nonzero"/><path fill="#5561d3" d="M 67.242188 193.433594 L 73.253906 193.433594 L 73.253906 199.433594 L 67.242188 199.433594 Z M 67.242188 193.433594 " fill-opacity="1" fill-rule="nonzero"/><path fill="#5561d3" d="M 73.253906 199.433594 L 85.28125 199.433594 L 85.28125 205.433594 L 73.253906 205.433594 Z M 73.253906 199.433594 " fill-opacity="1" fill-rule="nonzero"/><path fill="#5561d3" d="M 31.164062 187.433594 L 37.179688 187.433594 L 37.179688 193.433594 L 31.164062 193.433594 Z M 31.164062 187.433594 " fill-opacity="1" fill-rule="nonzero"/><path fill="#5561d3" d="M 67.242188 169.433594 L 73.253906 169.433594 L 73.253906 175.433594 L 67.242188 175.433594 Z M 67.242188 169.433594 " fill-opacity="1" fill-rule="nonzero"/><path fill="#5561d3" d="M 73.253906 163.433594 L 79.269531 163.433594 L 79.269531 169.433594 L 73.253906 169.433594 Z M 73.253906 163.433594 " fill-opacity="1" fill-rule="nonzero"/><path fill="#5561d3" d="M 271.679688 187.433594 L 289.71875 187.433594 L 289.71875 193.433594 L 271.679688 193.433594 Z M 271.679688 187.433594 " fill-opacity="1" fill-rule="nonzero"/><path fill="#8e68e6" d="M 31.164062 193.433594 L 37.179688 193.433594 L 37.179688 199.433594 L 31.164062 199.433594 Z M 31.164062 193.433594 " fill-opacity="1" fill-rule="nonzero"/><path fill="#8e68e6" d="M 37.179688 199.433594 L 55.214844 199.433594 L 55.214844 205.433594 L 37.179688 205.433594 Z M 37.179688 199.433594 " fill-opacity="1" fill-rule="nonzero"/><path fill="#8e68e6" d="M 37.179688 181.433594 L 43.191406 181.433594 L 43.191406 193.433594 L 37.179688 193.433594 Z M 37.179688 181.433594 " fill-opacity="1" fill-rule="nonzero"/><path fill="#8e68e6" d="M 73.253906 199.433594 L 67.242188 199.433594 L 67.242188 205.433594 L 55.214844 205.433594 L 55.214844 211.433594 L 85.28125 211.433594 L 85.28125 205.433594 L 73.253906 205.433594 Z M 73.253906 199.433594 " fill-opacity="1" fill-rule="nonzero"/><path fill="#8e68e6" d="M 85.28125 199.433594 L 85.28125 193.433594 L 79.269531 193.433594 L 79.269531 169.433594 L 73.253906 169.433594 L 73.253906 175.433594 L 67.242188 175.433594 L 67.242188 193.433594 L 73.253906 193.433594 L 73.253906 199.433594 Z M 85.28125 199.433594 " fill-opacity="1" fill-rule="nonzero"/><path fill="#8e68e6" d="M 85.28125 199.433594 L 109.332031 199.433594 L 109.332031 205.433594 L 85.28125 205.433594 Z M 85.28125 199.433594 " fill-opacity="1" fill-rule="nonzero"/><path fill="#8e68e6" d="M 109.332031 205.433594 L 115.34375 205.433594 L 115.34375 211.433594 L 109.332031 211.433594 Z M 109.332031 205.433594 " fill-opacity="1" fill-rule="nonzero"/><path fill="#8e68e6" d="M 127.371094 205.433594 L 121.359375 205.433594 L 121.359375 211.433594 L 133.382812 211.433594 L 133.382812 205.433594 L 139.398438 205.433594 L 139.398438 199.433594 L 127.371094 199.433594 Z M 127.371094 205.433594 " fill-opacity="1" fill-rule="nonzero"/><g clip-path="url(#933bbee768)"><path fill="#8e68e6" d="M 85.28125 163.433594 L 91.292969 163.433594 L 91.292969 157.433594 L 79.269531 157.433594 L 79.269531 169.433594 L 85.28125 169.433594 Z M 85.28125 163.433594 " fill-opacity="1" fill-rule="nonzero"/></g><path fill="#8e68e6" d="M 43.191406 175.433594 L 49.203125 175.433594 L 49.203125 181.433594 L 43.191406 181.433594 Z M 43.191406 175.433594 " fill-opacity="1" fill-rule="nonzero"/><path fill="#8e68e6" d="M 211.550781 193.433594 L 217.5625 193.433594 L 217.5625 205.433594 L 211.550781 205.433594 Z M 211.550781 193.433594 " fill-opacity="1" fill-rule="nonzero"/><path fill="#8e68e6" d="M 217.5625 205.433594 L 247.628906 205.433594 L 247.628906 211.433594 L 217.5625 211.433594 Z M 217.5625 205.433594 " fill-opacity="1" fill-rule="nonzero"/><path fill="#8e68e6" d="M 247.628906 199.433594 L 259.65625 199.433594 L 259.65625 205.433594 L 247.628906 205.433594 Z M 247.628906 199.433594 " fill-opacity="1" fill-rule="nonzero"/><path fill="#8e68e6" d="M 229.589844 181.433594 L 235.601562 181.433594 L 235.601562 175.433594 L 223.578125 175.433594 L 223.578125 187.433594 L 229.589844 187.433594 Z M 229.589844 181.433594 " fill-opacity="1" fill-rule="nonzero"/><path fill="#8e68e6" d="M 217.5625 187.433594 L 223.578125 187.433594 L 223.578125 193.433594 L 217.5625 193.433594 Z M 217.5625 187.433594 " fill-opacity="1" fill-rule="nonzero"/><path fill="#8e68e6" d="M 271.679688 199.433594 L 277.691406 199.433594 L 277.691406 205.433594 L 289.71875 205.433594 L 289.71875 211.433594 L 295.730469 211.433594 L 295.730469 199.433594 L 289.71875 199.433594 L 289.71875 193.433594 L 271.679688 193.433594 Z M 271.679688 199.433594 " fill-opacity="1" fill-rule="nonzero"/><path fill="#8e68e6" d="M 343.835938 205.433594 L 343.835938 199.433594 L 337.820312 199.433594 L 337.820312 205.433594 L 301.746094 205.433594 L 301.746094 211.433594 L 355.859375 211.433594 L 355.859375 205.433594 Z M 343.835938 205.433594 " fill-opacity="1" fill-rule="nonzero"/><path fill="#8e68e6" d="M 289.71875 181.433594 L 295.730469 181.433594 L 295.730469 193.433594 L 289.71875 193.433594 Z M 289.71875 181.433594 " fill-opacity="1" fill-rule="nonzero"/><path fill="#fb6ba2" d="M 295.730469 181.433594 L 301.746094 181.433594 L 301.746094 187.433594 L 295.730469 187.433594 Z M 295.730469 181.433594 " fill-opacity="1" fill-rule="nonzero"/><path fill="#fb6ba2" d="M 217.5625 193.433594 L 223.578125 193.433594 L 223.578125 205.433594 L 217.5625 205.433594 Z M 217.5625 193.433594 " fill-opacity="1" fill-rule="nonzero"/><path fill="#fb6ba2" d="M 247.628906 193.433594 L 265.667969 193.433594 L 265.667969 199.433594 L 247.628906 199.433594 Z M 247.628906 193.433594 " fill-opacity="1" fill-rule="nonzero"/><path fill="#fb6ba2" d="M 109.332031 199.433594 L 127.371094 199.433594 L 127.371094 205.433594 L 109.332031 205.433594 Z M 109.332031 199.433594 " fill-opacity="1" fill-rule="nonzero"/><path fill="#fb6ba2" d="M 127.371094 181.433594 L 133.382812 181.433594 L 133.382812 199.433594 L 127.371094 199.433594 Z M 127.371094 181.433594 " fill-opacity="1" fill-rule="nonzero"/><path fill="#fb6ba2" d="M 85.28125 193.433594 L 109.332031 193.433594 L 109.332031 199.433594 L 85.28125 199.433594 Z M 85.28125 193.433594 " fill-opacity="1" fill-rule="nonzero"/><path fill="#fb6ba2" d="M 79.269531 181.433594 L 85.28125 181.433594 L 85.28125 193.433594 L 79.269531 193.433594 Z M 79.269531 181.433594 " fill-opacity="1" fill-rule="nonzero"/><path fill="#fb6ba2" d="M 145.410156 193.433594 L 151.421875 193.433594 L 151.421875 205.433594 L 145.410156 205.433594 Z M 145.410156 193.433594 " fill-opacity="1" fill-rule="nonzero"/><path fill="#fb6ba2" d="M 151.421875 205.433594 L 157.433594 205.433594 L 157.433594 211.433594 L 151.421875 211.433594 Z M 151.421875 205.433594 " fill-opacity="1" fill-rule="nonzero"/><path fill="#fb6ba2" d="M 163.449219 205.433594 L 181.488281 205.433594 L 181.488281 211.433594 L 163.449219 211.433594 Z M 163.449219 205.433594 " fill-opacity="1" fill-rule="nonzero"/><path fill="#fb6ba2" d="M 295.730469 199.433594 L 337.820312 199.433594 L 337.820312 205.433594 L 295.730469 205.433594 Z M 295.730469 199.433594 " fill-opacity="1" fill-rule="nonzero"/><path fill="#fb6ba2" d="M 289.71875 193.433594 L 295.730469 193.433594 L 295.730469 199.433594 L 289.71875 199.433594 Z M 289.71875 193.433594 " fill-opacity="1" fill-rule="nonzero"/><path fill="#fb6ba2" d="M 85.28125 163.433594 L 91.292969 163.433594 L 91.292969 169.433594 L 85.28125 169.433594 Z M 85.28125 163.433594 " fill-opacity="1" fill-rule="nonzero"/><g clip-path="url(#56af71a98b)"><path fill="#fb6ba2" d="M 91.292969 157.433594 L 103.320312 157.433594 L 103.320312 163.433594 L 91.292969 163.433594 Z M 91.292969 157.433594 " fill-opacity="1" fill-rule="nonzero"/></g><path fill="#fb6ba2" d="M 49.203125 175.433594 L 55.214844 175.433594 L 55.214844 181.433594 L 49.203125 181.433594 Z M 49.203125 175.433594 " fill-opacity="1" fill-rule="nonzero"/><path fill="#fb6ba2" d="M 91.292969 175.433594 L 97.304688 175.433594 L 97.304688 187.433594 L 91.292969 187.433594 Z M 91.292969 175.433594 " fill-opacity="1" fill-rule="nonzero"/><path fill="#fb6ba2" d="M 103.320312 181.433594 L 115.34375 181.433594 L 115.34375 187.433594 L 103.320312 187.433594 Z M 103.320312 181.433594 " fill-opacity="1" fill-rule="nonzero"/><path fill="#fb6ba2" d="M 241.617188 181.433594 L 253.640625 181.433594 L 253.640625 187.433594 L 241.617188 187.433594 Z M 241.617188 181.433594 " fill-opacity="1" fill-rule="nonzero"/><path fill="#fb6ba2" d="M 235.601562 199.433594 L 247.628906 199.433594 L 247.628906 205.433594 L 235.601562 205.433594 Z M 235.601562 199.433594 " fill-opacity="1" fill-rule="nonzero"/><path fill="#fb6ba2" d="M 55.214844 199.433594 L 67.242188 199.433594 L 67.242188 205.433594 L 55.214844 205.433594 Z M 55.214844 199.433594 " fill-opacity="1" fill-rule="nonzero"/><path fill="#ffe14d" d="M 235.601562 175.433594 L 253.640625 175.433594 L 253.640625 181.433594 L 235.601562 181.433594 Z M 235.601562 175.433594 " fill-opacity="1" fill-rule="nonzero"/><path fill="#ffe14d" d="M 259.65625 181.433594 L 265.667969 181.433594 L 265.667969 187.433594 L 259.65625 187.433594 Z M 259.65625 181.433594 " fill-opacity="1" fill-rule="nonzero"/><path fill="#ffe14d" d="M 301.746094 181.433594 L 307.757812 181.433594 L 307.757812 187.433594 L 301.746094 187.433594 Z M 301.746094 181.433594 " fill-opacity="1" fill-rule="nonzero"/><path fill="#ffe14d" d="M 313.769531 187.433594 L 325.796875 187.433594 L 325.796875 193.433594 L 313.769531 193.433594 Z M 313.769531 187.433594 " fill-opacity="1" fill-rule="nonzero"/><path fill="#ffe14d" d="M 151.421875 187.433594 L 163.449219 187.433594 L 163.449219 193.433594 L 151.421875 193.433594 Z M 151.421875 187.433594 " fill-opacity="1" fill-rule="nonzero"/><path fill="#ffe14d" d="M 169.460938 193.433594 L 175.472656 193.433594 L 175.472656 199.433594 L 169.460938 199.433594 Z M 169.460938 193.433594 " fill-opacity="1" fill-rule="nonzero"/><path fill="#ffe14d" d="M 109.332031 163.433594 L 115.34375 163.433594 L 115.34375 169.433594 L 109.332031 169.433594 Z M 109.332031 163.433594 " fill-opacity="1" fill-rule="nonzero"/><path fill="#ffe14d" d="M 115.34375 169.433594 L 121.359375 169.433594 L 121.359375 175.433594 L 115.34375 175.433594 Z M 115.34375 169.433594 " fill-opacity="1" fill-rule="nonzero"/><path fill="#ffe14d" d="M 121.359375 175.433594 L 127.371094 175.433594 L 127.371094 181.433594 L 121.359375 181.433594 Z M 121.359375 175.433594 " fill-opacity="1" fill-rule="nonzero"/><path fill="#ffe14d" d="M 55.214844 181.433594 L 61.230469 181.433594 L 61.230469 187.433594 L 55.214844 187.433594 Z M 55.214844 181.433594 " fill-opacity="1" fill-rule="nonzero"/></svg>