<svg xmlns="http://www.w3.org/2000/svg" xmlns:xlink="http://www.w3.org/1999/xlink" width="500" zoomAndPan="magnify" viewBox="0 0 375 374.999991" height="500" preserveAspectRatio="xMidYMid meet" version="1.0"><defs><clipPath id="e6ff2846aa"><path d="M 5.796875 121.425781 L 369.546875 121.425781 L 369.546875 253.425781 L 5.796875 253.425781 Z M 5.796875 121.425781 " clip-rule="nonzero"/></clipPath><clipPath id="43696939d9"><path d="M 5.796875 154 L 369.546875 154 L 369.546875 253.425781 L 5.796875 253.425781 Z M 5.796875 154 " clip-rule="nonzero"/></clipPath><clipPath id="8ea8ea916c"><path d="M 226 121.425781 L 238 121.425781 L 238 133 L 226 133 Z M 226 121.425781 " clip-rule="nonzero"/></clipPath></defs><g clip-path="url(#e6ff2846aa)"><path fill="#ff999a" d="M 358.519531 242.425781 L 358.519531 220.425781 L 347.496094 220.425781 L 347.496094 209.425781 L 336.472656 209.425781 L 336.472656 198.425781 L 303.40625 198.425781 L 303.40625 176.425781 L 292.382812 176.425781 L 292.382812 154.425781 L 281.359375 154.425781 L 281.359375 143.425781 L 270.339844 143.425781 L 270.339844 132.425781 L 248.292969 132.425781 L 248.292969 121.425781 L 226.25 121.425781 L 226.25 132.425781 L 204.203125 132.425781 L 204.203125 143.425781 L 193.183594 143.425781 L 193.183594 154.425781 L 171.136719 154.425781 L 171.136719 176.425781 L 160.113281 176.425781 L 160.113281 165.425781 L 105.003906 165.425781 L 105.003906 176.425781 L 93.980469 176.425781 L 93.980469 187.425781 L 82.957031 187.425781 L 82.957031 198.425781 L 49.890625 198.425781 L 49.890625 209.425781 L 38.867188 209.425781 L 38.867188 220.425781 L 16.824219 220.425781 L 16.824219 242.425781 L 5.800781 242.425781 L 5.800781 253.425781 L 369.539062 253.425781 L 369.539062 242.425781 Z M 358.519531 242.425781 " fill-opacity="1" fill-rule="nonzero"/></g><g clip-path="url(#43696939d9)"><path fill="#5561d3" d="M 336.472656 242.425781 L 336.472656 231.425781 L 314.429688 231.425781 L 314.429688 220.425781 L 303.40625 220.425781 L 303.40625 209.425781 L 314.429688 209.425781 L 314.429688 198.425781 L 303.40625 198.425781 L 303.40625 176.425781 L 292.382812 176.425781 L 292.382812 165.425781 L 259.316406 165.425781 L 259.316406 176.425781 L 281.359375 176.425781 L 281.359375 187.425781 L 292.382812 187.425781 L 292.382812 209.425781 L 281.359375 209.425781 L 281.359375 220.425781 L 292.382812 220.425781 L 292.382812 231.425781 L 248.292969 231.425781 L 248.292969 220.425781 L 226.25 220.425781 L 226.25 198.425781 L 237.269531 198.425781 L 237.269531 187.425781 L 193.183594 187.425781 L 193.183594 154.425781 L 171.136719 154.425781 L 171.136719 198.425781 L 160.113281 198.425781 L 160.113281 220.425781 L 149.09375 220.425781 L 149.09375 231.425781 L 138.070312 231.425781 L 138.070312 220.425781 L 127.046875 220.425781 L 127.046875 231.425781 L 116.023438 231.425781 L 116.023438 220.425781 L 93.980469 220.425781 L 93.980469 231.425781 L 27.847656 231.425781 L 27.847656 220.425781 L 16.824219 220.425781 L 16.824219 242.425781 L 5.800781 242.425781 L 5.800781 253.425781 L 369.539062 253.425781 L 369.539062 242.425781 Z M 336.472656 242.425781 " fill-opacity="1" fill-rule="nonzero"/></g><path fill="#5561d3" d="M 248.292969 176.425781 L 259.316406 176.425781 L 259.316406 187.425781 L 248.292969 187.425781 Z M 248.292969 176.425781 " fill-opacity="1" fill-rule="nonzero"/><path fill="#5561d3" d="M 215.226562 143.425781 L 226.25 143.425781 L 226.25 132.425781 L 204.203125 132.425781 L 204.203125 143.425781 L 193.183594 143.425781 L 193.183594 154.425781 L 215.226562 154.425781 Z M 215.226562 143.425781 " fill-opacity="1" fill-rule="nonzero"/><path fill="#5561d3" d="M 93.980469 176.425781 L 105.003906 176.425781 L 105.003906 187.425781 L 93.980469 187.425781 Z M 93.980469 176.425781 " fill-opacity="1" fill-rule="nonzero"/><path fill="#5561d3" d="M 93.980469 187.425781 L 82.957031 187.425781 L 82.957031 220.425781 L 93.980469 220.425781 Z M 93.980469 187.425781 " fill-opacity="1" fill-rule="nonzero"/><path fill="#8e68e6" d="M 49.890625 209.425781 L 38.867188 209.425781 L 38.867188 220.425781 L 27.847656 220.425781 L 27.847656 231.425781 L 93.980469 231.425781 L 93.980469 220.425781 L 49.890625 220.425781 Z M 49.890625 209.425781 " fill-opacity="1" fill-rule="nonzero"/><path fill="#8e68e6" d="M 105.003906 198.425781 L 105.003906 187.425781 L 93.980469 187.425781 L 93.980469 220.425781 L 116.023438 220.425781 L 116.023438 198.425781 Z M 105.003906 198.425781 " fill-opacity="1" fill-rule="nonzero"/><path fill="#8e68e6" d="M 116.023438 220.425781 L 127.046875 220.425781 L 127.046875 231.425781 L 116.023438 231.425781 Z M 116.023438 220.425781 " fill-opacity="1" fill-rule="nonzero"/><path fill="#8e68e6" d="M 138.070312 220.425781 L 149.09375 220.425781 L 149.09375 231.425781 L 138.070312 231.425781 Z M 138.070312 220.425781 " fill-opacity="1" fill-rule="nonzero"/><path fill="#8e68e6" d="M 149.09375 198.425781 L 160.113281 198.425781 L 160.113281 220.425781 L 149.09375 220.425781 Z M 149.09375 198.425781 " fill-opacity="1" fill-rule="nonzero"/><path fill="#8e68e6" d="M 215.226562 187.425781 L 237.269531 187.425781 L 237.269531 176.425781 L 215.226562 176.425781 L 215.226562 165.425781 L 204.203125 165.425781 L 204.203125 154.425781 L 193.183594 154.425781 L 193.183594 187.425781 Z M 215.226562 187.425781 " fill-opacity="1" fill-rule="nonzero"/><path fill="#8e68e6" d="M 237.269531 209.425781 L 237.269531 198.425781 L 226.25 198.425781 L 226.25 220.425781 L 248.292969 220.425781 L 248.292969 209.425781 Z M 237.269531 209.425781 " fill-opacity="1" fill-rule="nonzero"/><path fill="#8e68e6" d="M 248.292969 220.425781 L 292.382812 220.425781 L 292.382812 231.425781 L 248.292969 231.425781 Z M 248.292969 220.425781 " fill-opacity="1" fill-rule="nonzero"/><path fill="#8e68e6" d="M 204.203125 198.425781 L 215.226562 198.425781 L 215.226562 220.425781 L 204.203125 220.425781 Z M 204.203125 198.425781 " fill-opacity="1" fill-rule="nonzero"/><path fill="#8e68e6" d="M 171.136719 220.425781 L 193.183594 220.425781 L 193.183594 231.425781 L 171.136719 231.425781 Z M 171.136719 220.425781 " fill-opacity="1" fill-rule="nonzero"/><path fill="#8e68e6" d="M 215.226562 231.425781 L 226.25 231.425781 L 226.25 242.425781 L 215.226562 242.425781 Z M 215.226562 231.425781 " fill-opacity="1" fill-rule="nonzero"/><path fill="#8e68e6" d="M 303.40625 231.425781 L 314.429688 231.425781 L 314.429688 242.425781 L 303.40625 242.425781 Z M 303.40625 231.425781 " fill-opacity="1" fill-rule="nonzero"/><path fill="#8e68e6" d="M 215.226562 143.425781 L 226.25 143.425781 L 226.25 154.425781 L 215.226562 154.425781 Z M 215.226562 143.425781 " fill-opacity="1" fill-rule="nonzero"/><g clip-path="url(#8ea8ea916c)"><path fill="#8e68e6" d="M 226.25 121.425781 L 237.269531 121.425781 L 237.269531 132.425781 L 226.25 132.425781 Z M 226.25 121.425781 " fill-opacity="1" fill-rule="nonzero"/></g><path fill="#8e68e6" d="M 105.003906 165.425781 L 116.023438 165.425781 L 116.023438 176.425781 L 105.003906 176.425781 Z M 105.003906 165.425781 " fill-opacity="1" fill-rule="nonzero"/><path fill="#8e68e6" d="M 303.40625 209.425781 L 314.429688 209.425781 L 314.429688 220.425781 L 303.40625 220.425781 Z M 303.40625 209.425781 " fill-opacity="1" fill-rule="nonzero"/><path fill="#8e68e6" d="M 314.429688 198.425781 L 325.449219 198.425781 L 325.449219 209.425781 L 314.429688 209.425781 Z M 314.429688 198.425781 " fill-opacity="1" fill-rule="nonzero"/><path fill="#fb6ba2" d="M 105.003906 176.425781 L 116.023438 176.425781 L 116.023438 198.425781 L 105.003906 198.425781 Z M 105.003906 176.425781 " fill-opacity="1" fill-rule="nonzero"/><path fill="#fb6ba2" d="M 116.023438 209.425781 L 149.09375 209.425781 L 149.09375 220.425781 L 116.023438 220.425781 Z M 116.023438 209.425781 " fill-opacity="1" fill-rule="nonzero"/><path fill="#fb6ba2" d="M 160.113281 187.425781 L 149.09375 187.425781 L 149.09375 198.425781 L 171.136719 198.425781 L 171.136719 176.425781 L 160.113281 176.425781 Z M 160.113281 187.425781 " fill-opacity="1" fill-rule="nonzero"/><path fill="#fb6ba2" d="M 60.914062 209.425781 L 82.957031 209.425781 L 82.957031 220.425781 L 60.914062 220.425781 Z M 60.914062 209.425781 " fill-opacity="1" fill-rule="nonzero"/><path fill="#fb6ba2" d="M 49.890625 198.425781 L 60.914062 198.425781 L 60.914062 209.425781 L 49.890625 209.425781 Z M 49.890625 198.425781 " fill-opacity="1" fill-rule="nonzero"/><path fill="#fb6ba2" d="M 237.269531 176.425781 L 237.269531 165.425781 L 226.25 165.425781 L 226.25 154.425781 L 204.203125 154.425781 L 204.203125 165.425781 L 215.226562 165.425781 L 215.226562 176.425781 Z M 237.269531 176.425781 " fill-opacity="1" fill-rule="nonzero"/><path fill="#fb6ba2" d="M 259.316406 198.425781 L 237.269531 198.425781 L 237.269531 209.425781 L 248.292969 209.425781 L 248.292969 220.425781 L 281.359375 220.425781 L 281.359375 209.425781 L 259.316406 209.425781 Z M 259.316406 198.425781 " fill-opacity="1" fill-rule="nonzero"/><path fill="#fb6ba2" d="M 259.316406 154.425781 L 292.382812 154.425781 L 292.382812 165.425781 L 259.316406 165.425781 Z M 259.316406 154.425781 " fill-opacity="1" fill-rule="nonzero"/><path fill="#fb6ba2" d="M 325.449219 220.425781 L 325.449219 209.425781 L 314.429688 209.425781 L 314.429688 231.425781 L 336.472656 231.425781 L 336.472656 220.425781 Z M 325.449219 220.425781 " fill-opacity="1" fill-rule="nonzero"/><path fill="#fb6ba2" d="M 336.472656 231.425781 L 358.519531 231.425781 L 358.519531 242.425781 L 336.472656 242.425781 Z M 336.472656 231.425781 " fill-opacity="1" fill-rule="nonzero"/><path fill="#ffe14d" d="M 248.292969 132.425781 L 270.339844 132.425781 L 270.339844 143.425781 L 248.292969 143.425781 Z M 248.292969 132.425781 " fill-opacity="1" fill-rule="nonzero"/><path fill="#ffe14d" d="M 270.339844 143.425781 L 281.359375 143.425781 L 281.359375 154.425781 L 270.339844 154.425781 Z M 270.339844 143.425781 " fill-opacity="1" fill-rule="nonzero"/><path fill="#ffe14d" d="M 325.449219 198.425781 L 336.472656 198.425781 L 336.472656 209.425781 L 325.449219 209.425781 Z M 325.449219 198.425781 " fill-opacity="1" fill-rule="nonzero"/><path fill="#ffe14d" d="M 336.472656 209.425781 L 347.496094 209.425781 L 347.496094 220.425781 L 336.472656 220.425781 Z M 336.472656 209.425781 " fill-opacity="1" fill-rule="nonzero"/><path fill="#ffe14d" d="M 259.316406 176.425781 L 281.359375 176.425781 L 281.359375 187.425781 L 259.316406 187.425781 Z M 259.316406 176.425781 " fill-opacity="1" fill-rule="nonzero"/><path fill="#ffe14d" d="M 116.023438 176.425781 L 138.070312 176.425781 L 138.070312 187.425781 L 149.09375 187.425781 L 149.09375 176.425781 L 160.113281 176.425781 L 160.113281 165.425781 L 116.023438 165.425781 Z M 116.023438 176.425781 " fill-opacity="1" fill-rule="nonzero"/><path fill="#ffe14d" d="M 71.9375 198.425781 L 82.957031 198.425781 L 82.957031 209.425781 L 71.9375 209.425781 Z M 71.9375 198.425781 " fill-opacity="1" fill-rule="nonzero"/></svg>